HIERARCHY
ROOT Hips
{
	OFFSET 0.00000 0.00000 0.00000
	CHANNELS 6 Xposition Yposition Zposition Zrotation Yrotation Xrotation 
	JOINT LHipJoint
	{
		OFFSET 0 0 0
		CHANNELS 3 Zrotation Yrotation Xrotation
		JOINT LeftUpLeg
		{
			OFFSET 1.64577 -1.42384 0.94276
			CHANNELS 3 Zrotation Yrotation Xrotation
			JOINT LeftLeg
			{
				OFFSET 2.11538 -5.81197 0.00000
				CHANNELS 3 Zrotation Yrotation Xrotation
				JOINT LeftFoot
				{
					OFFSET 2.36541 -6.49893 0.00000
					CHANNELS 3 Zrotation Yrotation Xrotation
					JOINT LeftToeBase
					{
						OFFSET 0.17759 -0.48793 1.73865
						CHANNELS 3 Zrotation Yrotation Xrotation
						End Site
						{
							OFFSET 0.00000 -0.00000 0.91205
						}
					}
				}
			}
		}
	}
	JOINT RHipJoint
	{
		OFFSET 0 0 0
		CHANNELS 3 Zrotation Yrotation Xrotation
		JOINT RightUpLeg
		{
			OFFSET -1.43750 -1.42384 0.94276
			CHANNELS 3 Zrotation Yrotation Xrotation
			JOINT RightLeg
			{
				OFFSET -2.10480 -5.78291 0.00000
				CHANNELS 3 Zrotation Yrotation Xrotation
				JOINT RightFoot
				{
					OFFSET -2.34880 -6.45329 0.00000
					CHANNELS 3 Zrotation Yrotation Xrotation
					JOINT RightToeBase
					{
						OFFSET -0.22842 -0.62757 1.80469
						CHANNELS 3 Zrotation Yrotation Xrotation
						End Site
						{
							OFFSET -0.00000 -0.00000 0.95886
						}
					}
				}
			}
		}
	}
	JOINT LowerBack
	{
		OFFSET 0 0 0
		CHANNELS 3 Zrotation Yrotation Xrotation
		JOINT Spine
		{
			OFFSET 0.06217 1.93758 -0.49272
			CHANNELS 3 Zrotation Yrotation Xrotation
			JOINT Spine1
			{
				OFFSET -0.03114 2.03621 -0.05830
				CHANNELS 3 Zrotation Yrotation Xrotation
				JOINT Neck
				{
					OFFSET 0 0 0
					CHANNELS 3 Zrotation Yrotation Xrotation
					JOINT Neck1
					{
						OFFSET 0.04421 1.41010 0.26562
						CHANNELS 3 Zrotation Yrotation Xrotation
						JOINT Head
						{
							OFFSET -0.13407 1.43847 0.06181
							CHANNELS 3 Zrotation Yrotation Xrotation
							End Site
							{
								OFFSET -0.04980 1.45844 -0.00689
							}
						}
					}
				}
				JOINT LeftShoulder
				{
					OFFSET 0 0 0
					CHANNELS 3 Zrotation Yrotation Xrotation
					JOINT LeftArm
					{
						OFFSET 2.18382 1.47753 -0.35694
						CHANNELS 3 Zrotation Yrotation Xrotation
						JOINT LeftForeArm
						{
							OFFSET 5.05460 -0.00000 0.00000
							CHANNELS 3 Zrotation Yrotation Xrotation
							JOINT LeftHand
							{
								OFFSET 3.39013 -0.00000 0.00000
								CHANNELS 3 Zrotation Yrotation Xrotation
								JOINT LeftFingerBase
								{
									OFFSET 0 0 0
									CHANNELS 3 Zrotation Yrotation Xrotation
									JOINT LeftHandIndex1
									{
										OFFSET 0.57242 -0.00000 -0.00000
										CHANNELS 3 Zrotation Yrotation Xrotation
										End Site
										{
											OFFSET 0.46150 -0.00000 -0.00000
										}
									}
								}
								JOINT LThumb
								{
									OFFSET 0 0 0
									CHANNELS 3 Zrotation Yrotation Xrotation
									End Site
									{
										OFFSET 0.46855 -0.00000 0.46855
									}
								}
							}
						}
					}
				}
				JOINT RightShoulder
				{
					OFFSET 0 0 0
					CHANNELS 3 Zrotation Yrotation Xrotation
					JOINT RightArm
					{
						OFFSET -2.06033 1.72839 -0.47437
						CHANNELS 3 Zrotation Yrotation Xrotation
						JOINT RightForeArm
						{
							OFFSET -5.07010 -0.00000 0.00000
							CHANNELS 3 Zrotation Yrotation Xrotation
							JOINT RightHand
							{
								OFFSET -3.14957 -0.00000 -0.00000
								CHANNELS 3 Zrotation Yrotation Xrotation
								JOINT RightFingerBase
								{
									OFFSET 0 0 0
									CHANNELS 3 Zrotation Yrotation Xrotation
									JOINT RightHandIndex1
									{
										OFFSET -0.71819 -0.00000 -0.00000
										CHANNELS 3 Zrotation Yrotation Xrotation
										End Site
										{
											OFFSET -0.57902 -0.00000 -0.00000
										}
									}
								}
								JOINT RThumb
								{
									OFFSET 0 0 0
									CHANNELS 3 Zrotation Yrotation Xrotation
									End Site
									{
										OFFSET -0.58786 -0.00000 0.58786
									}
								}
							}
						}
					}
				}
			}
		}
	}
}
MOTION
Frames: 7
Frame Time: .0083333
-22.6452 15.0017 0.9796 0 0 0 0 0 0 -21 0 0 0 0 0 0 0 0 0 0 0 0 0 0 21 0 0 0 0 0 0 0 0 0 0 0 0 0 0 0 0 0 0 0 0 0 0 -16 0 0 21 0 0 11 0 0 0 -8 0 0 0 0 0 0 0 0 0 0 0 0 0 0 0 0 0 0 0 0 8 0 0 0 0 0 0 0 0 0 0 0 0 0 0 0 0 0
-22.6452 15.0017 0.9796 -15.8624 85.1857 -18.6328 0.0000 0.0000 0.0000 -21.7545 -20.8939 3.0321 2.5565 9.9400 28.7827 1.5052 17.1862 -34.7500 0.1536 -2.5250 -6.9590 0.0000 0.0000 0.0000 25.3437 19.3847 3.0330 -2.1226 -9.1170 26.1620 -2.1378 -18.9181 -39.5515 -1.0267 6.4456 -18.0828 -0.1141 2.6986 4.8746 -1.2488 3.6146 1.9520 -1.4077 1.8272 -0.6488 11.2866 5.4141 -3.6484 -4.9640 7.2935 14.2465 -2.9335 3.9372 5.4959 0.0000 0.0000 0.0000 -86.6055 1.4929 22.9711 14.9219 -24.0372 -3.1941 -0.0000 -0.0000 3.6516 17.6486 10.0185 3.1680 -7.1250 0.0000 -0.0000 -8.2319 40.3480 0.9515 0.0000 0.0000 0.0000 88.7833 -6.4301 29.0909 -18.0355 28.2025 -4.5660 0.0000 -0.0000 -15.6673 -16.2725 2.0611 -0.6015 7.1250 -0.0000 -0.0000 7.9376 -27.8036 3.3485
-22.6444 15.0050 0.9779 -17.0545 85.1775 -19.7006 0.0000 0.0000 0.0000 -21.6093 -20.9643 2.8934 2.5585 9.9435 28.7938 1.4952 17.2082 -34.7145 0.1573 -2.5556 -7.0439 0.0000 0.0000 0.0000 25.3901 19.4051 2.9420 -2.1086 -9.0887 26.0732 -2.1344 -18.8696 -39.4938 -1.0036 6.3749 -17.8760 0.0225 2.6860 4.7363 -1.2391 3.6037 1.9316 -1.4664 1.8219 -0.5854 11.2269 5.4143 -3.7000 -4.8347 7.2793 14.3389 -2.8821 3.9365 5.5259 0.0000 -0.0000 0.0000 -86.5541 1.5227 22.7993 14.8286 -23.9068 -3.1562 -0.0000 -0.0000 3.7090 17.5395 9.6534 3.0338 -7.1250 0.0000 -0.0000 -8.2627 39.9616 1.0343 0.0000 -0.0000 0.0000 88.8177 -6.3951 29.0773 -17.9997 28.1568 -4.5491 0.0000 -0.0000 -15.6523 -16.2854 2.0068 -0.5861 7.1250 -0.0000 -0.0000 7.9315 -27.8597 3.3352
-22.6426 15.0082 0.9767 -15.6352 85.2195 -18.1700 0.0000 0.0000 0.0000 -21.7484 -21.0904 2.8424 2.5499 9.9280 28.7439 1.4696 17.3513 -34.7048 0.1590 -2.5690 -7.0809 0.0000 0.0000 0.0000 25.1949 19.4353 2.8382 -2.1032 -9.0778 26.0390 -2.1791 -18.7307 -39.5865 -0.9849 6.3168 -17.7064 -0.0814 2.6961 4.6126 -1.2820 3.6124 1.9031 -1.4471 1.8258 -0.5491 11.2021 5.3948 -3.7889 -4.7668 7.2422 14.4848 -2.8561 3.9237 5.5803 -0.0000 -0.0000 0.0000 -86.5323 1.6065 22.5812 14.7634 -23.8154 -3.1298 -0.0000 -0.0000 3.7547 17.4153 9.2136 2.8752 -7.1250 0.0000 -0.0000 -8.2948 39.4971 1.1340 -0.0000 -0.0000 0.0000 88.8387 -6.4151 29.0275 -17.9718 28.1211 -4.5360 0.0000 -0.0000 -15.6608 -16.2539 2.0107 -0.5861 7.1250 -0.0000 -0.0000 7.9554 -27.8557 3.3462
-22.6412 15.0133 0.9758 -15.1610 85.2320 -17.5260 0.0000 0.0000 0.0000 -21.7697 -21.2297 2.7260 2.5436 9.9167 28.7073 1.4535 17.4517 -34.7091 0.1587 -2.5671 -7.0758 0.0000 0.0000 0.0000 25.0821 19.4957 2.6893 -2.0931 -9.0574 25.9751 -2.1859 -18.7385 -39.6254 -0.9801 6.3018 -17.6627 -0.2033 2.6351 4.4395 -1.2825 3.5290 1.9585 -1.3649 1.7844 -0.4052 11.2703 5.4961 -4.2445 -4.8325 7.3306 14.6653 -2.8669 3.9598 5.7271 0.0000 -0.0000 0.0000 -86.5813 1.4812 22.1343 14.7234 -23.7593 -3.1136 -0.0000 -0.0000 3.9274 17.4624 9.2036 2.8804 -7.1250 0.0000 -0.0000 -8.2527 39.4904 1.1295 0.0000 -0.0000 0.0000 88.8320 -6.1470 29.1645 -17.8939 28.0211 -4.4993 0.0000 -0.0000 -15.6218 -16.1940 2.0179 -0.5859 7.1250 -0.0000 -0.0000 8.0007 -27.8486 3.3670
-22.6395 15.0182 0.9738 -16.8998 85.1709 -19.0896 0.0000 0.0000 0.0000 -21.5547 -21.3030 2.5953 2.5339 9.8993 28.6512 1.4446 17.4946 -34.6999 0.1619 -2.5921 -7.1450 0.0000 0.0000 0.0000 25.1832 19.5558 2.5294 -2.0892 -9.0495 25.9502 -2.1887 -18.6747 -39.5840 -0.9417 6.1808 -17.3100 -0.0547 2.6044 4.2535 -1.2471 3.4943 1.9487 -1.4002 1.7674 -0.3058 11.2468 5.5252 -4.3671 -4.8083 7.3539 14.7040 -2.8500 3.9694 5.7605 -0.0000 -0.0000 0.0000 -86.5524 1.4657 22.0332 14.6839 -23.7039 -3.0977 -0.0000 -0.0000 3.9549 17.5840 9.4503 2.9787 -7.1250 0.0000 -0.0000 -8.1895 39.7551 1.0670 -0.0000 -0.0000 0.0000 88.8602 -6.0418 29.1997 -17.8376 27.9488 -4.4729 0.0000 -0.0000 -15.5510 -16.1639 2.0792 -0.6025 7.1250 -0.0000 -0.0000 8.0196 -27.7856 3.3871
-22.6361 15.0258 0.9719 -16.7011 85.1687 -18.6065 0.0000 0.0000 0.0000 -21.4799 -21.4172 2.3273 2.5264 9.8857 28.6073 1.4401 17.5181 -34.6970 0.1604 -2.5806 -7.1132 0.0000 0.0000 0.0000 25.0551 19.6734 2.2556 -2.0845 -9.0400 25.9206 -2.1755 -18.6854 -39.5306 -0.9472 6.1983 -17.3607 -0.0409 2.6101 3.9482 -1.2729 3.5016 1.8720 -1.4210 1.7702 -0.2117 11.1849 5.4844 -4.3513 -4.7578 7.2996 14.7120 -2.8289 3.9437 5.7515 -0.0000 0.0000 0.0000 -86.4213 1.5079 22.3132 14.6368 -23.6377 -3.0788 -0.0000 -0.0000 3.6515 17.7601 9.6730 3.0806 -7.1250 0.0000 -0.0000 -8.0753 39.9999 1.0028 -0.0000 0.0000 0.0000 88.8842 -6.0956 29.2173 -17.8464 27.9601 -4.4770 0.0000 -0.0000 -15.5892 -16.1515 2.1463 -0.6214 7.1250 -0.0000 -0.0000 8.0246 -27.7164 3.4025
